<svg xmlns="http://www.w3.org/2000/svg" fill="none" viewBox="-0.625 -0.625 20 20" height="20" width="20" id="Add-Circle-Bold--Streamline-Ultimate.svg"><desc>Add Circle Bold Streamline Icon: https://streamlinehq.com</desc><path stroke="#ffffff" stroke-linecap="round" stroke-linejoin="round" d="M0.5859375 9.375c0 2.331015625 0.925984375 4.5665625 2.5742578125 6.21484375C4.8084609375 17.238046875 7.043992187500001 18.1640625 9.375 18.1640625c2.331015625 0 4.5665625 -0.926015625 6.21484375 -2.57421875 1.6482031250000002 -1.64828125 2.57421875 -3.8838281250000004 2.57421875 -6.21484375 0 -2.3310078125 -0.926015625 -4.5665390625 -2.57421875 -6.2148046875C13.941562499999998 1.511921875 11.706015625000001 0.5859375 9.375 0.5859375c-2.3310078125 0 -4.5665390625 0.925984375 -6.2148046875 2.5742578125C1.511921875 4.8084609375 0.5859375 7.043992187500001 0.5859375 9.375Z" stroke-width="1.25"></path><path stroke="#ffffff" stroke-linecap="round" stroke-linejoin="round" d="M13.4765625 7.6171875h-2.34375v-2.34375c0 -0.31079687500000003 -0.1234375 -0.608875 -0.343203125 -0.8286406249999999 -0.219765625 -0.219765625 -0.517890625 -0.343234375 -0.828671875 -0.343234375h-1.171875c-0.31078125 0 -0.60890625 0.12346875000000002 -0.828671875 0.343234375 -0.219734375 0.219765625 -0.343203125 0.5178437499999999 -0.343203125 0.8286406249999999v2.34375h-2.34375c-0.31079687500000003 0 -0.608875 0.12346875000000002 -0.8286406249999999 0.343203125 -0.219765625 0.219765625 -0.343234375 0.517890625 -0.343234375 0.828671875v1.171875c0 0.31078125 0.12346875000000002 0.60890625 0.343234375 0.828671875s0.5178437499999999 0.343203125 0.8286406249999999 0.343203125h2.34375v2.34375c0 0.31078125 0.12346875000000002 0.60890625 0.343203125 0.828671875 0.219765625 0.219765625 0.517890625 0.343203125 0.828671875 0.343203125h1.171875c0.31078125 0 0.60890625 -0.1234375 0.828671875 -0.343203125s0.343203125 -0.517890625 0.343203125 -0.828671875v-2.34375h2.34375c0.31078125 0 0.60890625 -0.1234375 0.828671875 -0.343203125s0.343203125 -0.517890625 0.343203125 -0.828671875v-1.171875c0 -0.31078125 -0.1234375 -0.60890625 -0.343203125 -0.828671875 -0.219765625 -0.219734375 -0.517890625 -0.343203125 -0.828671875 -0.343203125Z" stroke-width="1.25"></path></svg>