<svg xmlns="http://www.w3.org/2000/svg" fill="none" viewBox="-0.625 -0.625 20 20" height="20" width="20" id="Analytics-Bars-3-D--Streamline-Ultimate.svg"><desc>Analytics Bars 3 D Streamline Icon: https://streamlinehq.com</desc><path stroke="#ffffff" stroke-linecap="round" stroke-linejoin="round" d="M5.2734375 8.7890625v8.19140625c0.00040625 0.15437499999999998 -0.0373203125 0.306484375 -0.10982812500000001 0.442734375 -0.0725078125 0.136328125 -0.177546875 0.252578125 -0.30579687499999997 0.338515625 -0.397578125 0.26468749999999996 -0.8645468749999999 0.40593749999999995 -1.3421875 0.40593749999999995 -0.4776328125 0 -0.9446093750000001 -0.14125 -1.3421875 -0.40593749999999995 -0.1282421875 -0.0859375 -0.23328125 -0.2021875 -0.3057890625 -0.338515625 -0.0725078125 -0.13625 -0.110234375 -0.288359375 -0.1098359375 -0.442734375V8.7890625" stroke-width="1.25"></path><path stroke="#ffffff" stroke-linecap="round" stroke-linejoin="round" d="M1.7578125 8.7890625c0 0.31078125 0.18519531250000001 0.60890625 0.5148515625 0.828671875S3.049421875 9.9609375 3.515625 9.9609375c0.46620312500000005 0 0.9133046875 -0.1234375 1.2429609375 -0.343203125 0.32965625 -0.219765625 0.5148515625 -0.517890625 0.5148515625 -0.828671875 0 -0.31078125 -0.18519531250000001 -0.60890625 -0.5148515625 -0.828671875C4.4289296875 7.74065625 3.981828125 7.6171875 3.515625 7.6171875c-0.46620312500000005 0 -0.9133046875 0.12346875000000002 -1.2429609375 0.343203125 -0.32965625 0.219765625 -0.5148515625 0.517890625 -0.5148515625 0.828671875Z" stroke-width="1.25"></path><path stroke="#ffffff" stroke-linecap="round" stroke-linejoin="round" d="M11.1328125 5.2734375v11.70703125c0.000390625 0.15437499999999998 -0.03734375 0.306484375 -0.10984375 0.442734375 -0.0725 0.136328125 -0.17750000000000002 0.252578125 -0.30578125 0.338515625 -0.397578125 0.26468749999999996 -0.86453125 0.40593749999999995 -1.3421875 0.40593749999999995 -0.47765625000000006 0 -0.9446093750000001 -0.14125 -1.3421875 -0.40593749999999995 -0.12828125 -0.0859375 -0.23328125 -0.2021875 -0.3057890625 -0.338515625 -0.0725078125 -0.13625 -0.110234375 -0.288359375 -0.1098359375 -0.442734375V5.2734375" stroke-width="1.25"></path><path stroke="#ffffff" stroke-linecap="round" stroke-linejoin="round" d="M7.6171875 5.2734375c0 0.31079687500000003 0.18519531250000001 0.608875 0.51484375 0.8286406249999999 0.32968749999999997 0.219765625 0.7767968749999999 0.343234375 1.24296875 0.343234375s0.91328125 -0.12346875000000002 1.24296875 -0.343234375c0.329609375 -0.219765625 0.51484375 -0.5178437499999999 0.51484375 -0.8286406249999999 0 -0.31079687500000003 -0.185234375 -0.608875 -0.51484375 -0.8286406249999999C10.28828125 4.22503125 9.841171875 4.1015625 9.375 4.1015625s-0.91328125 0.12346875000000002 -1.24296875 0.343234375c-0.3296484375 0.219765625 -0.51484375 0.5178437499999999 -0.51484375 0.8286406249999999Z" stroke-width="1.25"></path><path stroke="#ffffff" stroke-linecap="round" stroke-linejoin="round" d="M16.9921875 1.7578125v15.22265625c0.000390625 0.15437499999999998 -0.03734375 0.306484375 -0.10984375 0.442734375 -0.0725 0.136328125 -0.17750000000000002 0.252578125 -0.30578125 0.338515625 -0.397578125 0.26468749999999996 -0.86453125 0.40593749999999995 -1.3421875 0.40593749999999995 -0.47765625000000006 0 -0.9446093750000001 -0.14125 -1.3421875 -0.40593749999999995 -0.12828125 -0.0859375 -0.23328125 -0.2021875 -0.30578125 -0.338515625 -0.0725 -0.13625 -0.110234375 -0.288359375 -0.10984375 -0.442734375V1.7578125" stroke-width="1.25"></path><path stroke="#ffffff" stroke-linecap="round" stroke-linejoin="round" d="M13.4765625 1.7578125c0 0.31079687500000003 0.185234375 0.608875 0.51484375 0.8286406249999999 0.32968749999999997 0.219765625 0.7767968749999999 0.343234375 1.24296875 0.343234375s0.91328125 -0.12346875000000002 1.24296875 -0.343234375c0.329609375 -0.219765625 0.51484375 -0.5178437499999999 0.51484375 -0.8286406249999999 0 -0.31079687500000003 -0.185234375 -0.608875 -0.51484375 -0.8286406249999999C16.14765625 0.70940234375 15.700546874999999 0.5859375 15.234375 0.5859375s-0.91328125 0.12346484375000001 -1.24296875 0.343234375c-0.329609375 0.219765625 -0.51484375 0.5178437499999999 -0.51484375 0.8286406249999999Z" stroke-width="1.25"></path></svg>