<svg xmlns="http://www.w3.org/2000/svg" fill="none" viewBox="0 0 20 20" height="20" width="20" id="House-1--Streamline-Ultimate.svg"><desc>House 1 Streamline Icon: https://streamlinehq.com</desc><path stroke="#ffffff" stroke-linecap="round" stroke-linejoin="round" d="M3.127491666666667 11.620000000000001v6.875h5v-5c0 -0.33158333333333334 0.1317 -0.6495 0.36609166666666665 -0.8839166666666667 0.23441666666666666 -0.23441666666666666 0.5524166666666668 -0.36608333333333337 0.8839166666666667 -0.36608333333333337h1.25c0.3315 0 0.6494166666666666 0.13166666666666668 0.8839166666666667 0.36608333333333337 0.23441666666666666 0.23441666666666666 0.36608333333333337 0.5523333333333333 0.36608333333333337 0.8839166666666667v5h5v-6.875" stroke-width="1.5"></path><path stroke="#ffffff" stroke-linecap="round" stroke-linejoin="round" d="M0.6274925 10.370000000000001 9.118333333333334 1.8791583333333333c0.11608333333333334 -0.11615833333333332 0.2539166666666667 -0.20830833333333335 0.40558333333333335 -0.271175 0.15175000000000002 -0.06286666666666667 0.31433333333333335 -0.095225 0.47858333333333336 -0.095225 0.16425 0 0.32683333333333336 0.032358333333333336 0.47850000000000004 0.095225 0.15175000000000002 0.06286666666666667 0.2895833333333333 0.15501666666666666 0.4056666666666667 0.271175L19.3775 10.370000000000001" stroke-width="1.5"></path></svg>