<svg xmlns="http://www.w3.org/2000/svg" fill="none" viewBox="-0.625 -0.625 20 20" height="20" width="20" id="Money-Bag-Dollar--Streamline-Ultimate.svg"><desc>Money Bag Dollar Streamline Icon: https://streamlinehq.com</desc><path stroke="#ffffff" stroke-linecap="round" stroke-linejoin="round" d="M10.6046875 9.9609375h-1.5882812499999999c-0.2434375 0.00015625 -0.47921874999999997 0.08499999999999999 -0.666875 0.24 -0.18765625 0.155 -0.31562500000000004 0.37046875 -0.361796875 0.609453125 -0.046171875 0.238984375 -0.007734375000000001 0.486640625 0.108671875 0.7003906249999999 0.11640624999999999 0.21375 0.30359375 0.380390625 0.5293749999999999 0.47124999999999995l1.6125 0.6453125c0.22578125 0.090859375 0.41296875 0.2575 0.5293749999999999 0.47124999999999995 0.11640624999999999 0.21375 0.15484375 0.46140625 0.108671875 0.7003906249999999 -0.046171875 0.238984375 -0.174140625 0.454453125 -0.361796875 0.609453125 -0.18765625 0.155 -0.4234375 0.23984375 -0.666875 0.24h-1.5867187500000002" stroke-width="1.25"></path><path stroke="#ffffff" stroke-linecap="round" stroke-linejoin="round" d="M9.4328125 9.9609375V9.375" stroke-width="1.25"></path><path stroke="#ffffff" stroke-linecap="round" stroke-linejoin="round" d="M9.4328125 15.234375v-0.5859375" stroke-width="1.25"></path><path stroke="#ffffff" stroke-linecap="round" stroke-linejoin="round" d="M5.3312578125000005 6.4453125H13.534375" stroke-width="1.25"></path><path stroke="#ffffff" stroke-linecap="round" stroke-linejoin="round" d="m12.2109375 3.9343125 1.1234374999999999 -2.2468749999999997c0.054921875 -0.10996875 0.073828125 -0.234421875 0.0540625 -0.355734375 -0.0196875 -0.12132031250000001 -0.077109375 -0.233359375 -0.16398437500000002 -0.320265625 -0.08695312499999999 -0.0869140625 -0.198984375 -0.14428906249999998 -0.3203125 -0.1640234375 -0.12125 -0.019726562500000003 -0.245703125 -0.0008046875000000001 -0.355703125 0.0540859375l-1.484375 0.740625c-0.127734375 0.06375 -0.274296875 0.0786953125 -0.41226562499999997 0.0420078125 -0.13796875 -0.0366796875 -0.2578125 -0.1224609375 -0.336953125 -0.2412265625l-0.39296875 -0.59609375c-0.053515625000000004 -0.08025 -0.126015625 -0.1460484375 -0.211015625 -0.19155624999999998C9.62578125 0.6097484375 9.530859375 0.5859375 9.434375000000001 0.5859375s-0.19140625 0.0238109375 -0.276484375 0.06931875c-0.08499999999999999 0.0455078125 -0.1575 0.11130625 -0.211015625 0.19155624999999998l-0.39765625 0.59609375c-0.0790625 0.1188984375 -0.19890625 0.20478906249999998 -0.33687500000000004 0.241484375 -0.13804687499999999 0.0366875 -0.2846875 0.021656250000000002 -0.4123515625 -0.042265625l-1.48203125 -0.740625c-0.11 -0.0546328125 -0.234375 -0.0733671875 -0.35559375 -0.0535625 -0.1212109375 0.0198046875 -0.23315624999999998 0.07715625 -0.320046875 0.16396093750000001 -0.0868984375 0.0868046875 -0.144359375 0.1986953125 -0.16428125 0.319890625 -0.0199296875 0.12119531249999999 -0.0013203125 0.24558593750000002 0.053203125 0.3556484375l1.1015625 2.203125" stroke-width="1.25"></path><path stroke="#ffffff" stroke-linecap="round" stroke-linejoin="round" d="m5.65390625 8.203125 -2.15625 2.5c-0.52765625 0.685859375 -0.8527265625 1.50578125 -0.93840625 2.366953125 -0.0856796875 0.8610937500000001 0.0714453125 1.7289843749999998 0.45359375 2.505390625 0.38215625 0.77640625 0.9740546875 1.4303124999999999 1.7086796875 1.88765625 0.7346328125 0.45734375000000005 1.582640625 0.699921875 2.4480078124999998 0.70015625h4.5234375c0.865390625 -0.000234375 1.7133593749999998 -0.24281250000000001 2.44796875 -0.70015625 0.7346875 -0.45734375000000005 1.3265624999999999 -1.11125 1.708671875 -1.88765625 0.3821875 -0.77640625 0.539296875 -1.6442968749999998 0.453671875 -2.505390625 -0.085703125 -0.861171875 -0.41078125000000004 -1.68109375 -0.9384375 -2.366953125l-2.15625 -2.5" stroke-width="1.25"></path></svg>