<svg xmlns="http://www.w3.org/2000/svg" fill="none" viewBox="-0.625 -0.625 20 20" height="20" width="20" id="Performance-Money-Decrease--Streamline-Ultimate.svg"><desc>Performance Money Decrease Streamline Icon: https://streamlinehq.com</desc><path stroke="#ffffff" stroke-linecap="round" stroke-linejoin="round" d="M16.9921875 8.7890625 11.25 3.046875c-0.19523437500000002 -0.19707031249999998 -0.45437500000000003 -0.317953125 -0.730859375 -0.3408671875 -0.27640625 -0.022921875 -0.551953125 0.0536328125 -0.776953125 0.2158671875l-2.578125 1.8359375c-0.21111718750000003 0.1441015625 -0.46355468750000006 0.2152265625 -0.7188515625 0.20253125000000002C6.189921875 4.9476484375 5.94578125 4.8518359375 5.75 4.6875L0.5859375 0.5859375" stroke-width="1.25"></path><path stroke="#ffffff" stroke-linecap="round" stroke-linejoin="round" d="M12.3046875 8.7890625h4.6875v-4.6875" stroke-width="1.25"></path><path stroke="#ffffff" stroke-linecap="round" stroke-linejoin="round" d="M1.171875 15.0390625H7.03125s0.5859375 0 0.5859375 0.5859375v1.953125s0 0.5859375 -0.5859375 0.5859375H1.171875s-0.5859375 0 -0.5859375 -0.5859375V15.625s0 -0.5859375 0.5859375 -0.5859375Z" stroke-width="1.25"></path><path stroke="#ffffff" stroke-linecap="round" stroke-linejoin="round" d="M10.546875 15.0390625H16.40625s0.5859375 0 0.5859375 0.5859375v1.953125s0 0.5859375 -0.5859375 0.5859375h-5.859375s-0.5859375 0 -0.5859375 -0.5859375V15.625s0 -0.5859375 0.5859375 -0.5859375Z" stroke-width="1.25"></path><path stroke="#ffffff" stroke-linecap="round" stroke-linejoin="round" d="M11.71875 11.9140625h5.859375s0.5859375 0 0.5859375 0.5859375v1.953125s0 0.5859375 -0.5859375 0.5859375H11.71875s-0.5859375 0 -0.5859375 -0.5859375V12.5s0 -0.5859375 0.5859375 -0.5859375Z" stroke-width="1.25"></path><path stroke="#ffffff" stroke-linecap="round" stroke-linejoin="round" d="M2.34375 11.9140625h5.859375s0.5859375 0 0.5859375 0.5859375v1.953125s0 0.5859375 -0.5859375 0.5859375H2.34375s-0.5859375 0 -0.5859375 -0.5859375V12.5s0 -0.5859375 0.5859375 -0.5859375Z" stroke-width="1.25"></path><path stroke="#ffffff" stroke-linecap="round" stroke-linejoin="round" d="M1.171875 8.7890625H7.03125s0.5859375 0 0.5859375 0.5859375v1.953125s0 0.5859375 -0.5859375 0.5859375H1.171875s-0.5859375 0 -0.5859375 -0.5859375V9.375s0 -0.5859375 0.5859375 -0.5859375Z" stroke-width="1.25"></path></svg>