<svg xmlns="http://www.w3.org/2000/svg" fill="none" viewBox="-0.625 -0.625 20 20" height="20" width="20" id="Single-Neutral-Circle--Streamline-Ultimate.svg"><desc>Single Neutral Circle Streamline Icon: https://streamlinehq.com</desc><path stroke="#2c3e50" stroke-linecap="round" stroke-linejoin="round" d="M0.5859375 9.375c0 2.331015625 0.925984375 4.5665625 2.5742578125 6.21484375C4.8084609375 17.238046875 7.043992187500001 18.1640625 9.375 18.1640625c2.331015625 0 4.5665625 -0.926015625 6.21484375 -2.57421875 1.6482031250000002 -1.64828125 2.57421875 -3.8838281250000004 2.57421875 -6.21484375 0 -2.3310078125 -0.926015625 -4.5665390625 -2.57421875 -6.2148046875C13.941562499999998 1.511921875 11.706015625000001 0.5859375 9.375 0.5859375c-2.3310078125 0 -4.5665390625 0.925984375 -6.2148046875 2.5742578125C1.511921875 4.8084609375 0.5859375 7.043992187500001 0.5859375 9.375Z" stroke-width="1.25"></path><path stroke="#2c3e50" stroke-linecap="round" stroke-linejoin="round" d="M7.6171875 4.6875c0 0.46620312500000005 0.18519531250000001 0.9133046875 0.51484375 1.2429609375 0.32968749999999997 0.32965625 0.7767968749999999 0.5148515625 1.24296875 0.5148515625s0.91328125 -0.18519531250000001 1.24296875 -0.5148515625c0.329609375 -0.32965625 0.51484375 -0.7767578125 0.51484375 -1.2429609375 0 -0.46620312500000005 -0.185234375 -0.9133046875 -0.51484375 -1.2429609375C10.28828125 3.1148828125 9.841171875 2.9296875 9.375 2.9296875s-0.91328125 0.18519531250000001 -1.24296875 0.5148515625C7.8023828125 3.7741953125 7.6171875 4.221296875 7.6171875 4.6875Z" stroke-width="1.25"></path><path stroke="#2c3e50" stroke-linecap="round" stroke-linejoin="round" d="m10.546875 15.8203125 0.5859375 -3.515625h1.171875V10.546875c0 -0.7770312500000001 -0.308671875 -1.5221875 -0.8580468750000001 -2.071640625C10.8971875 7.925859375 10.15203125 7.6171875 9.375 7.6171875c-0.7770312500000001 0 -1.5221875 0.308671875 -2.0716015625 0.8580468750000001C6.7539765625 9.0246875 6.4453125 9.76984375 6.4453125 10.546875v1.7578125h1.171875l0.5859375 3.515625h2.34375Z" stroke-width="1.25"></path></svg>